<?xml version="1.0" standalone="no"?>
<!DOCTYPE svg PUBLIC "-//W3C//DTD SVG 20010904//EN"
 "http://www.w3.org/TR/2001/REC-SVG-20010904/DTD/svg10.dtd">
<svg version="1.0" xmlns="http://www.w3.org/2000/svg"
 width="1280.000000pt" height="1280.000000pt" viewBox="0 0 1280.000000 1280.000000"
 preserveAspectRatio="xMidYMid meet">
<metadata>
Created by potrace 1.14, written by Peter Selinger 2001-2017
</metadata>
<g transform="translate(0.000000,1280.000000) scale(0.100000,-0.100000)"
fill="#000000" stroke="none">
<path d="M3919 9376 c-2 -3 -24 -6 -47 -7 -24 -2 -49 -10 -58 -18 -38 -40 -65
-75 -98 -123 -19 -29 -92 -111 -161 -183 -87 -91 -125 -137 -125 -153 0 -23
35 -83 52 -90 4 -2 8 -8 8 -14 0 -9 65 -96 108 -143 9 -11 31 -38 47 -60 17
-22 35 -45 40 -51 6 -6 28 -33 50 -58 22 -26 59 -68 82 -94 24 -26 43 -50 43
-54 0 -4 11 -19 25 -34 14 -15 36 -41 48 -57 12 -16 39 -47 60 -69 20 -22 37
-41 37 -44 0 -5 26 -35 75 -88 22 -23 58 -64 80 -91 22 -27 47 -56 56 -64 17
-18 169 -205 184 -228 6 -8 24 -30 40 -47 17 -18 41 -47 55 -65 14 -18 40 -48
58 -67 17 -18 32 -36 32 -39 0 -3 8 -13 18 -23 38 -41 82 -92 78 -92 -3 0 14
-20 37 -44 23 -24 60 -65 82 -92 22 -26 50 -59 62 -71 11 -13 36 -43 55 -66
18 -23 44 -54 58 -69 14 -15 36 -41 48 -57 13 -17 41 -49 63 -72 21 -23 39
-46 39 -52 0 -6 2 -8 5 -5 8 7 70 -53 79 -77 5 -14 -6 -32 -48 -74 -84 -87
-144 -151 -139 -151 4 0 -31 -41 -152 -179 -17 -19 -53 -59 -82 -89 -28 -30
-62 -67 -74 -84 -13 -16 -41 -48 -63 -71 -23 -23 -54 -58 -69 -77 -69 -86 -84
-103 -114 -136 -18 -19 -31 -34 -28 -34 2 0 -6 -10 -18 -23 -20 -21 -115 -128
-173 -194 -13 -15 -30 -35 -37 -43 -8 -8 -40 -46 -72 -85 -32 -38 -63 -73 -69
-77 -6 -4 -8 -8 -4 -8 4 0 -14 -22 -40 -49 -42 -44 -112 -121 -172 -191 -12
-14 -39 -45 -59 -70 -20 -25 -49 -59 -66 -76 -16 -18 -44 -49 -62 -70 -17 -22
-48 -56 -67 -77 -20 -20 -36 -42 -36 -49 0 -6 -3 -8 -6 -5 -4 4 -15 -10 -26
-29 -20 -38 -28 -49 -68 -92 -53 -59 -59 -74 -57 -165 l2 -86 43 -46 c23 -25
42 -43 42 -41 0 6 77 -72 130 -131 53 -60 95 -113 132 -168 l33 -50 100 -3
c366 -9 1175 -2 1227 11 25 6 50 24 75 54 21 24 50 57 64 73 14 15 36 42 50
60 13 17 33 41 44 54 11 12 31 38 45 56 14 19 37 46 52 61 14 15 24 30 21 32
-2 3 5 8 16 12 12 3 21 10 21 14 0 6 44 53 271 287 32 34 59 65 59 68 0 4 12
19 28 34 24 25 92 99 191 211 17 19 31 39 31 44 0 6 3 7 6 4 4 -3 19 10 34 31
16 20 52 63 82 94 29 32 73 80 98 108 73 82 85 95 97 97 9 2 123 -102 123
-113 0 -2 16 -19 36 -37 20 -18 50 -47 68 -66 17 -19 57 -61 89 -94 54 -56
123 -135 157 -179 8 -10 31 -36 50 -58 19 -21 58 -64 87 -97 28 -32 71 -79 95
-104 63 -66 107 -117 158 -179 24 -30 51 -62 60 -70 8 -8 31 -35 50 -60 19
-25 38 -46 42 -48 4 -2 8 -9 8 -15 0 -7 9 -18 20 -25 11 -7 20 -19 20 -28 0
-8 5 -12 10 -9 6 3 10 -1 10 -9 0 -9 5 -16 10 -16 6 0 10 -5 10 -11 0 -7 11
-22 26 -35 14 -13 23 -24 20 -24 -4 0 2 -9 12 -19 9 -10 32 -35 49 -55 18 -19
43 -41 55 -47 17 -9 135 -12 463 -10 451 2 814 8 850 15 39 7 65 18 60 26 -3
5 2 15 10 23 8 9 15 19 15 24 0 4 11 20 25 35 14 15 25 30 25 33 0 6 43 53
135 149 28 29 69 65 92 80 23 16 44 38 48 53 7 29 -4 163 -14 163 -4 0 -13 17
-21 37 -7 21 -27 57 -44 81 -73 102 -172 225 -228 284 -15 15 -26 28 -23 28 2
0 -11 15 -28 33 -18 19 -52 57 -77 86 -25 29 -54 63 -65 75 -11 13 -42 49 -70
81 -27 32 -60 69 -72 81 -13 13 -23 27 -23 31 0 4 -12 22 -28 38 -15 17 -44
51 -65 77 -21 26 -45 55 -54 63 -8 9 -31 35 -50 58 -65 77 -128 151 -150 174
-12 13 -20 23 -17 23 3 0 -1 6 -8 14 -8 7 -30 32 -49 56 -74 90 -166 196 -222
253 -20 21 -37 40 -37 42 0 4 -74 87 -117 132 -12 13 -20 23 -17 23 3 0 -6 11
-20 24 -15 13 -26 28 -26 35 0 6 -6 11 -13 11 -7 0 -17 9 -22 19 -6 11 -43 57
-84 103 -112 127 -121 137 -121 147 0 5 -5 11 -12 13 -10 4 16 38 80 104 6 7
12 15 12 17 0 3 17 24 38 46 20 22 51 57 67 77 17 21 45 53 63 72 17 18 32 36
32 39 0 2 12 17 28 32 15 16 47 52 72 81 25 29 54 61 64 72 11 10 17 18 14 18
-3 0 11 17 31 38 60 64 111 122 106 122 -2 0 18 23 45 50 27 28 46 50 43 50
-3 0 10 16 28 35 19 19 48 51 64 71 17 20 40 47 53 60 12 13 22 27 22 31 0 5
9 15 20 23 11 8 20 18 20 23 0 5 12 21 28 37 15 15 43 47 61 70 19 23 40 48
46 54 5 6 33 38 60 71 28 33 55 65 61 70 6 6 28 32 50 60 21 27 46 56 54 65 8
9 26 30 40 48 14 18 35 45 48 60 12 15 25 35 28 45 3 9 10 15 15 12 5 -4 9 -2
9 3 0 10 34 53 78 98 12 13 22 26 22 29 0 3 12 19 28 34 44 47 91 101 86 101
-3 0 5 11 18 23 78 81 160 201 156 231 -4 29 -33 73 -68 103 -41 34 -150 145
-150 152 0 3 -15 22 -33 42 -17 19 -45 55 -62 80 -16 24 -34 49 -40 55 -5 7
-18 21 -27 33 -14 16 -28 21 -70 20 -29 0 -328 0 -664 1 -336 0 -620 -3 -630
-7 -30 -11 -378 -372 -525 -544 -26 -30 -57 -66 -70 -80 -13 -14 -51 -56 -83
-93 -33 -37 -71 -80 -85 -95 -28 -31 -107 -120 -167 -189 -20 -23 -67 -73
-103 -110 -36 -37 -88 -94 -116 -126 -27 -33 -56 -65 -62 -72 -7 -7 -13 -15
-13 -19 0 -4 -6 -12 -13 -19 -11 -11 -18 -7 -42 22 -61 74 -121 141 -242 269
-69 73 -139 149 -156 169 -18 20 -49 54 -69 74 -21 20 -38 42 -38 48 0 7 -7
12 -15 12 -8 0 -15 5 -15 10 0 6 -10 21 -22 34 -13 13 -52 55 -88 93 -151 163
-311 332 -394 417 -49 50 -100 107 -115 125 -14 19 -36 46 -48 59 l-23 25
-517 -2 c-285 -1 -566 -2 -626 -4 -59 -1 -108 2 -110 6 -1 5 -5 6 -8 3z"/>
</g>
</svg>
